<?xml version="1.0" encoding="UTF-8" standalone="no"?>
<!-- Created with Inkscape (http://www.inkscape.org/) -->

<svg
   version="1.1"
   id="svg1"
   width="656"
   height="288"
   viewBox="0 0 656 288"
   sodipodi:docname="Sem Título-2.png"
   inkscape:version="1.4.3 (0d15f75, 2025-12-25)"
   xmlns:inkscape="http://www.inkscape.org/namespaces/inkscape"
   xmlns:sodipodi="http://sodipodi.sourceforge.net/DTD/sodipodi-0.dtd"
   xmlns="http://www.w3.org/2000/svg"
   xmlns:svg="http://www.w3.org/2000/svg">
  <defs
     id="defs1" />
  <sodipodi:namedview
     id="namedview1"
     pagecolor="#ffffff"
     bordercolor="#000000"
     borderopacity="0.25"
     inkscape:showpageshadow="2"
     inkscape:pageopacity="0.0"
     inkscape:pagecheckerboard="0"
     inkscape:deskcolor="#d1d1d1"
     inkscape:zoom="0.54874433"
     inkscape:cx="254.21675"
     inkscape:cy="234.17099"
     inkscape:window-width="1280"
     inkscape:window-height="649"
     inkscape:window-x="-8"
     inkscape:window-y="-8"
     inkscape:window-maximized="1"
     inkscape:current-layer="g1" />
  <g
     inkscape:groupmode="layer"
     inkscape:label="Image"
     id="g1">
    <path
       style="fill:#ffffff"
       d="m 114.47786,268.94677 c -0.5014,-1.34572 -5.5431,-16.08046 -11.20378,-32.74385 -6.302383,-18.55239 -10.910943,-30.62041 -11.888423,-31.13114 -0.87796,-0.45874 -15.90444,-5.70298 -33.39218,-11.65386 l -31.7959,-10.8198 19.47605,-19.47605 19.47605,-19.47605 24.31985,8.21129 c 13.375913,4.5162 28.369843,9.66497 33.319843,11.44171 l 9,3.23042 11.26377,32.96834 11.26377,32.96835 -19.46371,19.46371 c -18.529,18.529 -19.50749,19.3462 -20.37534,17.01693 z m 59.99676,-17.26134 -19.25515,-19.27416 11.25464,-33.06909 11.25465,-33.06909 32.55818,-11.13654 C 228.19394,149.01145 243.2869,144 243.82686,144 c 0.53996,0 9.64973,8.67654 20.24393,19.2812 l 19.26218,19.2812 -32.12529,10.93423 c -17.66891,6.01383 -32.74635,11.39979 -33.50543,11.9688 -0.75908,0.56901 -6.18453,15.20957 -12.05656,32.53457 -5.87204,17.325 -10.95531,31.82841 -11.29617,32.2298 -0.34086,0.40139 -9.28457,-7.94358 -19.8749,-18.54437 z M 310.28726,185.75 l -0.002,-16.25 10.50211,0.31434 c 9.52456,0.28508 10.50211,0.49043 10.50211,2.20619 0,1.65482 -0.90835,1.92866 -7.25,2.18566 l -7.25,0.29381 -0.3075,4.25 -0.3075,4.25 h 6.5575 c 6.328,0 6.5575,0.0875 6.5575,2.5 0,2.41026 -0.23333,2.5 -6.5,2.5 h -6.50011 v 4.5 4.5 h 7.5 c 7.33333,0 7.5,0.0556 7.5,2.5 v 2.5 h -10.5 -10.5 z m 25.00211,15.76452 c 0,-0.26701 2.65224,-4.18055 5.89386,-8.69675 l 5.89386,-8.21126 -5.39386,-7.29359 c -2.96662,-4.01147 -5.39386,-7.52294 -5.39386,-7.80325 0,-0.28032 1.75309,-0.50967 3.89575,-0.50967 3.58044,0 4.15545,0.40469 7.10425,5 1.76467,2.75 3.33967,5 3.5,5 0.16033,0 1.73533,-2.25 3.5,-5 2.9488,-4.59531 3.52381,-5 7.10425,-5 2.14266,0 3.89575,0.23189 3.89575,0.51531 0,0.28343 -2.29399,3.66926 -5.09775,7.52409 -2.80376,3.85482 -4.85306,7.64641 -4.55399,8.42576 0.29906,0.77934 2.81805,4.54387 5.59774,8.36561 2.7797,3.82174 5.054,7.22325 5.054,7.55892 0,0.33567 -1.77232,0.61031 -3.9385,0.61031 -3.70132,0 -4.13792,-0.3295 -7.25,-5.47164 -1.82132,-3.0094 -3.6444,-5.4844 -4.05129,-5.5 -0.40688,-0.0156 -2.38309,2.44664 -4.39158,5.47164 -3.37651,5.0854 -3.94265,5.5 -7.51021,5.5 -2.12213,0 -3.85842,-0.21847 -3.85842,-0.48548 z m 37,-15.95116 V 169 l 6.75,0.006 c 12.79483,0.0106 17.25,2.86089 17.25,11.03616 0,3.21163 -0.6401,4.75221 -2.92308,7.03518 C 390.84068,189.60253 389.69167,190 384.9162,190 h -5.52702 l -0.29991,5.75 c -0.2965,5.68475 -0.33678,5.75356 -3.5499,6.06336 l -3.25,0.31336 z m 16.17126,-2.21835 C 392.44216,179.74178 388.95761,174 382.78937,174 h -3.5 v 5.5 5.5 h 3.67126 c 2.01919,0 4.49419,-0.74474 5.5,-1.65499 z m 22.33097,17.13655 c -4.63792,-2.50641 -6.29182,-4.36374 -8.09863,-9.09481 -2.97617,-7.79299 0.36293,-16.69651 7.65733,-20.41784 13.8635,-7.07263 28.98011,6.16126 23.48213,20.55751 -2.43655,6.38002 -7.20102,9.76284 -14.39083,10.21764 -3.88462,0.24573 -6.58972,-0.14909 -8.65,-1.2625 z m 14.57469,-7.40464 c 2.39722,-2.39722 2.92308,-3.76423 2.92308,-7.59879 0,-3.94119 -0.48789,-5.13147 -3.10576,-7.57692 -6.80211,-6.35412 -16.82281,-1.64685 -16.872,7.92571 -0.031,6.02592 4.03657,10.17308 9.97776,10.17308 3.25776,0 4.78443,-0.63058 7.07692,-2.92308 z m 32.42308,7.51144 c -11.09523,-4.93132 -12.87423,-20.62472 -3.17651,-28.02152 4.79501,-3.65734 13.11867,-4.57308 18.69811,-2.0571 4.42191,1.994 4.57553,2.29137 2.58795,5.00956 -1.20178,1.64352 -1.75095,1.7373 -4.04706,0.69113 -4.88833,-2.22728 -10.39036,-1.53641 -13.63941,1.71265 -2.39331,2.3933 -2.92308,3.76653 -2.92308,7.57692 0,3.81039 0.52977,5.18362 2.92308,7.57692 2.39128,2.39129 3.76771,2.92308 7.56574,2.92308 2.55346,0 5.58995,-0.50698 6.74776,-1.12661 1.71934,-0.92017 2.34866,-0.79352 3.43425,0.69113 1.90224,2.60146 1.72184,3.02126 -2.07196,4.82154 -4.08821,1.93998 -11.96642,2.03898 -16.09887,0.2023 z m 26.5,-14.83836 V 169.5 h 10.5 c 10.16044,0 10.5,0.0713 10.5,2.20619 0,2.04504 -0.52959,2.22765 -7.25,2.5 l -7.25,0.29381 -0.3075,4.25 -0.3075,4.25 h 6.5575 c 6.29397,0 6.5575,0.0985 6.5575,2.45228 0,2.30971 -0.36337,2.46959 -6.25,2.75 l -6.25,0.29772 v 4 4 l 7.25,0.29381 c 6.95244,0.28175 7.25,0.39462 7.25,2.75 0,2.4523 -0.0166,2.45619 -10.5,2.45619 h -10.5 z m 29,-0.25 V 169 h 2.29815 c 1.7634,0 4.03214,2.38509 9.75,10.25 l 7.45185,10.25 0.28498,-10.25 0.28499,-10.25 h 2.96501 2.96502 v 16.5 c 0,16.44806 -0.007,16.49996 -2.25,16.48781 -1.70719,-0.009 -3.93875,-2.4102 -9.25,-9.9521 -3.85,-5.46695 -7.3375,-9.96147 -7.75,-9.98781 -0.4125,-0.0264 -0.75,4.4521 -0.75,9.9521 v 10 h -3 -3 z m 42.77903,3.25 -0.27903,-13.25 -4.75,-0.30479 c -4.52248,-0.29019 -4.75,-0.44586 -4.75,-3.25 V 169 h 12.5 12.5 v 3 c 0,2.88889 -0.16667,3 -4.5,3 h -4.5 v 13.5 13.5 h -2.97097 -2.97098 z m 22.22097,-3 V 169.5 h 10.5 c 10.22222,0 10.5,0.0595 10.5,2.25 0,2.11905 -0.40741,2.25 -7,2.25 h -7 v 4.5 4.5 h 6 c 5.73333,0 6,0.11111 6,2.5 0,2.38889 -0.26667,2.5 -6,2.5 h -6 v 4.5 4.5 h 7 c 6.8,0 7,0.0714 7,2.5 v 2.5 h -10.5 -10.5 z m 29,-0.25 V 169 h 7.53212 c 9.62053,0 14.05885,1.7768 15.99131,6.40182 1.91547,4.58439 0.93645,9.03343 -2.65235,12.0532 -1.57909,1.32872 -2.87108,3.05017 -2.87108,3.82543 0,2.38196 3.7193,5.00636 6.37543,4.49861 1.8463,-0.35294 2.70508,0.10222 3.50491,1.85767 0.87532,1.9211 0.72853,2.50223 -0.84472,3.34421 -1.04728,0.56048 -3.46872,1.01906 -5.38098,1.01906 -4.00052,0 -8.35815,-4.26754 -9.33256,-9.13962 C 619.17471,190.6767 618.4775,190 616.66437,190 c -2.23611,0 -2.375,0.35088 -2.375,6 v 6 h -3.5 -3.5 z m 16.42857,-2.07143 c 1.86505,-1.86505 2.05418,-5.54582 0.37143,-7.22857 -0.66,-0.66 -3.135,-1.2 -5.5,-1.2 h -4.3 v 5 5 h 3.92857 c 2.2381,0 4.60476,-0.67619 5.5,-1.57143 z M 348.94456,151.54135 c -2.11465,-0.75397 -4.97169,-2.42172 -6.34899,-3.70611 -3.28935,-3.06745 -7.09149,-10.64031 -7.90898,-15.7526 L 334.03375,128 h -4.87219 -4.87219 v 12.04381 12.04381 l -7.25,-0.29381 -7.25,-0.29381 -0.26348,-33.25 L 309.26241,85 h 17.94838 c 19.10559,0 21.8591,0.501672 26.42016,4.813622 4.62164,4.36921 6.65842,9.36473 6.65842,16.330818 0,8.5666 -2.82699,14.20899 -9.06058,18.084 -4.35495,2.70718 -4.68236,3.18107 -3.95357,5.7222 2.5544,8.90668 8.40676,12.01015 16.23129,8.60736 1.35725,-0.59025 2.19209,0.23082 3.98318,3.91743 l 2.26604,4.66419 -2.42542,1.8295 c -2.80405,2.11509 -8.70551,4.05053 -12.15696,3.98699 -1.31119,-0.0241 -4.11415,-0.66078 -6.22879,-1.41476 z m -5.10974,-37.9959 c 3.41407,-3.41406 3.43395,-10.2953 0.0411,-14.239668 -2.2377,-2.60148 -3.03853,-2.83142 -11,-3.15838 l -8.58655,-0.35263 V 105.89738 116 h 8.54545 c 7.73962,0 8.77692,-0.23146 11,-2.45455 z m 114.86164,38.48707 c -6.5426,-1.39805 -13.5796,-5.15751 -18.08819,-9.66345 -16.66348,-16.65369 -11.6625,-45.207058 9.6811,-55.274738 4.92597,-2.323566 6.70024,-2.594191 17,-2.592978 9.98718,0.0012 12.09197,0.30132 16,2.281608 8.27841,4.19485 8.4474,4.44053 6.10541,8.87608 -3.66843,6.947708 -3.28991,6.795398 -9.2179,3.70919 -7.44159,-3.8742 -17.32121,-4.02661 -23.84311,-0.36782 -12.88167,7.226628 -14.97061,25.509448 -4.04265,35.382208 7.10076,6.41511 19.39754,7.35976 28.63039,2.19942 2.5696,-1.43618 4.74848,-2.49217 4.84196,-2.34664 0.0935,0.14553 1.43696,2.47537 2.98551,5.17742 2.72949,4.76267 2.75785,4.95717 0.92796,6.36392 -1.03816,0.7981 -4.25455,2.55987 -7.14753,3.91505 -5.86574,2.74771 -16.87038,3.82852 -23.83295,2.34073 z M 378.28937,118.5 V 85 h 22 22 v 5.500002 5.5 h -15 -15 V 104.5 113 h 13 13 v 5.47012 5.47013 l -12.75,0.27987 -12.75,0.27988 v 8 8 l 14.75,0.27673 14.75,0.27674 V 146.52673 152 h -22 -22 z m 124,0 V 85 h 7 7 v 33.5 33.5 h -7 -7 z m 31,0 V 85 h 22 22 v 5.500002 5.5 h -15 -15 V 104.5 113 h 12.90745 12.90745 l 0.34255,5.47417 0.34255,5.47417 -13,0.27583 -13,0.27583 -0.27822,13.75 -0.27822,13.75 h -6.97178 -6.97178 z m 57,0 V 85 h 22 22 v 5.500002 5.5 h -15 -15 V 104.5 113 h 13 13 v 5.47012 5.47013 l -12.75,0.27987 -12.75,0.27988 v 8 8 l 14.75,0.27673 14.75,0.27674 V 146.52673 152 h -22 -22 z m -544.062733,4.93721 c -10.63939,-10.6499 -19.14026,-19.53595 -18.89081,-19.74677 0.24945,-0.21083 15.05928,-5.343888 32.91073,-11.406798 L 92.703737,81.260163 103.78133,48.678638 c 6.09268,-17.919839 11.30785,-32.811781 11.58927,-33.093205 0.28143,-0.281424 9.1722,8.157386 19.75727,18.752911 l 19.24559,19.264591 -11.33777,33.329567 -11.33777,33.329558 -33.063463,11.2693 -33.06346,11.2693 z m 164.562733,8.12212 -33,-11.28163 -11.35971,-33.275978 -11.35971,-33.275976 19.45959,-19.459588 19.45959,-19.459587 6.81854,19.846714 c 3.75019,10.915693 8.88635,25.868771 11.41368,33.229063 l 4.59515,13.382347 32.48644,11.033177 c 17.86753,6.06824 32.69197,11.201718 32.94318,11.407728 0.25121,0.20601 -8.29879,9.09575 -19,19.75497 l -19.45675,19.3804 z"
       id="path1" />
  </g>
</svg>

